<svg width="111" height="111" viewBox="0 0 111 111" fill="none" xmlns="http://www.w3.org/2000/svg">
<path d="M111 55.5C111 24.8472 86.1506 0 55.5 0C24.8494 0 0 24.8472 0 55.5C0 83.2007 20.2965 106.162 46.8278 110.325V71.5436H32.7354V55.5H46.8278V43.2735C46.8278 29.3629 55.1146 21.6805 67.79 21.6805C73.8628 21.6805 80.2136 22.7755 80.2136 22.7755V36.4321H73.2167C66.3206 36.4321 64.1722 40.7112 64.1722 45.0999V55.511H79.5632L77.1039 71.5546H64.1656V110.325C90.7035 106.162 111 83.2007 111 55.5Z" fill="#F69333"/>
<path d="M77.104 71.5436L79.5633 55.5H64.1657V45.089C64.1657 40.709 66.314 36.4211 73.2102 36.4211H80.2071V22.7755C80.2071 22.7755 73.8562 21.6805 67.7835 21.6805C55.108 21.6805 46.8213 29.3629 46.8213 43.2735V55.5H32.7355V71.5436H46.8278V110.325C52.5743 111.225 58.4258 111.225 64.1723 110.325V71.5436H77.104Z" fill="white"/>
</svg>
