<svg width="123" height="87" viewBox="0 0 123 87" fill="none" xmlns="http://www.w3.org/2000/svg">
<g clip-path="url(#clip0_10_2)">
<path fill-rule="evenodd" clip-rule="evenodd" d="M121.63 18.65C121.63 18.65 120.43 10.18 116.73 6.46C112.06 1.57 106.82 1.54 104.42 1.25C87.24 0 61.43 0 61.43 0C61.43 0 35.63 0 18.43 1.25C16.03 1.54 10.8 1.56 6.12 6.46C2.4 10.18 1.22 18.65 1.22 18.65C0.460042 25.2569 0.0527975 31.8997 0 38.55L0 47.86C0.0537425 54.5103 0.460984 61.153 1.22 67.76C1.22 67.76 2.42 76.23 6.09 80C10.77 84.9 16.91 84.74 19.66 85.26C29.49 86.2 61.44 86.48 61.44 86.48C61.44 86.48 87.27 86.48 104.44 85.21C106.85 84.92 112.08 84.89 116.76 80C120.45 76.28 121.65 67.8 121.65 67.8C122.41 61.1931 122.817 54.5503 122.87 47.9V38.54C122.803 31.8893 122.386 25.2468 121.62 18.64L121.63 18.65Z" fill="#F69333"/>
<path fill-rule="evenodd" clip-rule="evenodd" d="M48.71 59.16V24.63L81.9 41.95L48.71 59.16Z" fill="white"/>
</g>
<defs>
<clipPath id="clip0_10_2">
<rect width="122.88" height="86.43" fill="white"/>
</clipPath>
</defs>
</svg>
